<?xml version="1.0" standalone="no"?>
<!DOCTYPE svg PUBLIC "-//W3C//DTD SVG 20010904//EN"
 "http://www.w3.org/TR/2001/REC-SVG-20010904/DTD/svg10.dtd">
<svg version="1.0" xmlns="http://www.w3.org/2000/svg"
 width="100.000000pt" height="100.000000pt" viewBox="0 0 100.000000 100.000000"
 preserveAspectRatio="xMidYMid meet">
<metadata>
Created by potrace 1.11, written by Peter Selinger 2001-2013
</metadata>
<g transform="translate(0.000000,100.000000) scale(0.100000,-0.100000)"
fill="#000000" stroke="none">
<path d="M360 957 c-13 -7 -35 -28 -48 -47 -15 -23 -32 -36 -49 -37 -53 -4
-93 -50 -93 -107 0 -15 -7 -26 -19 -29 -31 -8 -61 -65 -55 -103 4 -26 -1 -37
-25 -61 -42 -43 -50 -95 -22 -148 12 -23 19 -48 16 -57 -11 -29 14 -97 45
-120 19 -13 30 -31 30 -45 0 -13 11 -34 25 -46 14 -12 44 -40 68 -63 75 -72
124 -80 211 -35 l56 30 59 -31 c51 -26 66 -30 106 -23 37 5 56 15 89 48 22 24
53 50 68 59 15 10 29 31 33 49 4 18 20 43 35 56 33 27 55 83 46 117 -3 13 3
39 14 61 11 22 20 50 20 63 0 30 -25 77 -49 94 -14 10 -18 25 -18 60 1 37 -4
52 -22 72 -13 14 -32 28 -42 31 -11 4 -15 12 -12 24 11 44 -63 120 -103 104
-7 -2 -18 6 -24 19 -38 72 -94 93 -161 60 -41 -20 -41 -20 -73 -1 -36 22 -71
24 -106 6z m96 -39 l44 -22 45 23 c49 25 74 22 105 -12 25 -26 25 -38 0 -67
-20 -23 -19 -40 3 -40 7 0 18 9 25 20 8 14 23 20 46 20 46 0 76 -36 69 -85 -4
-29 -1 -35 14 -35 61 -1 96 -110 35 -110 -15 0 -33 -4 -41 -9 -22 -14 -4 -30
32 -27 45 4 74 -11 92 -51 13 -28 14 -40 5 -69 -11 -34 -13 -35 -31 -18 -10 9
-25 14 -35 10 -15 -6 -14 -10 9 -34 33 -34 39 -70 20 -110 -18 -37 -40 -47
-62 -29 -9 8 -24 17 -33 20 -12 4 -18 17 -18 35 0 30 -21 58 -34 45 -3 -4 -3
-22 0 -40 6 -29 2 -37 -31 -67 -21 -20 -32 -37 -26 -40 11 -7 66 17 76 34 9
15 53 -9 59 -33 6 -25 -18 -67 -38 -67 -8 0 -26 -16 -41 -36 -52 -68 -121 -77
-194 -25 -38 27 -63 26 -109 -3 -20 -14 -49 -28 -63 -31 -37 -9 -92 17 -124
59 -15 20 -33 36 -41 36 -20 0 -44 42 -38 67 6 24 50 48 59 33 10 -17 65 -41
76 -34 6 3 -5 20 -27 40 -33 30 -36 38 -31 70 5 29 3 35 -11 32 -11 -2 -18
-15 -20 -36 -2 -20 -10 -36 -20 -39 -9 -3 -24 -12 -33 -20 -50 -43 -95 68 -53
132 17 26 3 45 -21 25 -10 -9 -15 -4 -25 24 -9 29 -8 41 5 70 17 36 39 49 85
52 53 3 53 3 40 19 -7 8 -23 15 -36 15 -58 0 -43 92 16 105 30 7 32 9 27 41
-11 69 72 115 118 64 10 -11 22 -20 27 -20 14 0 9 40 -7 46 -29 12 -12 58 30
82 27 16 32 15 81 -10z"/>
<path d="M474 869 c-9 -15 4 -26 27 -25 21 1 41 25 22 27 -4 0 -16 2 -25 4
-10 2 -20 -1 -24 -6z"/>
<path d="M475 789 c-4 -6 -2 -15 5 -19 19 -12 45 -5 45 11 0 17 -41 24 -50 8z"/>
<path d="M375 740 c-3 -6 3 -22 14 -36 19 -24 19 -33 6 -80 -10 -34 13 -38 30
-5 20 39 19 59 -5 99 -20 33 -34 40 -45 22z"/>
<path d="M580 718 c-22 -34 -20 -89 2 -116 16 -19 31 2 22 29 -10 31 -6 60 12
80 18 20 18 39 -1 39 -8 0 -24 -15 -35 -32z"/>
<path d="M470 706 c0 -17 18 -25 43 -18 29 8 20 32 -13 32 -19 0 -30 -5 -30
-14z"/>
<path d="M260 611 c0 -27 39 -81 59 -81 18 0 21 18 4 31 -9 8 -22 29 -30 47
-16 40 -33 42 -33 3z"/>
<path d="M470 625 c0 -10 10 -15 30 -15 20 0 30 5 30 15 0 10 -10 15 -30 15
-20 0 -30 -5 -30 -15z"/>
<path d="M716 633 c-3 -3 -6 -14 -6 -23 0 -9 -9 -25 -20 -35 -23 -21 -26 -45
-6 -45 20 0 56 48 56 76 0 24 -13 38 -24 27z"/>
<path d="M475 562 c-15 -15 -2 -32 25 -32 37 0 41 26 5 32 -13 3 -27 3 -30 0z"/>
<path d="M475 479 c-9 -14 4 -29 25 -29 19 0 36 17 27 26 -10 10 -47 12 -52 3z"/>
<path d="M287 452 c-25 -5 -16 -26 14 -30 13 -2 36 -15 51 -29 24 -23 28 -24
34 -9 12 32 -54 78 -99 68z"/>
<path d="M683 448 c-33 -9 -77 -54 -67 -69 3 -5 19 2 36 16 16 14 40 25 54 25
14 0 24 6 24 14 0 21 -11 24 -47 14z"/>
<path d="M474 399 c-6 -10 11 -29 26 -29 3 0 11 4 19 9 17 11 5 31 -19 31 -10
0 -22 -5 -26 -11z"/>
<path d="M470 316 c0 -17 18 -25 43 -18 26 7 15 26 -16 30 -19 2 -27 -1 -27
-12z"/>
<path d="M375 269 c-4 -6 -3 -14 2 -18 20 -12 31 -47 25 -80 -6 -44 19 -38 32
7 7 24 4 38 -10 63 -21 36 -39 46 -49 28z"/>
<path d="M580 248 c-23 -38 -24 -47 -10 -82 13 -36 30 -32 28 7 -1 39 10 77
23 77 5 0 9 7 9 15 0 26 -30 16 -50 -17z"/>
<path d="M470 235 c0 -10 10 -15 30 -15 20 0 30 5 30 15 0 10 -10 15 -30 15
-20 0 -30 -5 -30 -15z"/>
<path d="M470 155 c0 -10 10 -15 30 -15 20 0 30 5 30 15 0 10 -10 15 -30 15
-20 0 -30 -5 -30 -15z"/>
</g>
</svg>
